HIERARCHY
ROOT Hips
{
 OFFSET 0.000000 0.000000 0.000000
 CHANNELS 6 Xposition Yposition Zposition Yrotation Xrotation Zrotation
 JOINT Chest
 {
  OFFSET 0.000000 9.585900 0.002600
  CHANNELS 3 Yrotation Xrotation Zrotation
  JOINT Chest2
  {
   OFFSET 0.000000 9.601200 -0.005300
   CHANNELS 3 Yrotation Xrotation Zrotation
   JOINT Chest3
   {
    OFFSET 0.000000 9.561800 0.000000
    CHANNELS 3 Yrotation Xrotation Zrotation
    JOINT Chest4
    {
     OFFSET 0.000000 9.552100 0.000000
     CHANNELS 3 Yrotation Xrotation Zrotation
     JOINT Neck
     {
      OFFSET 0.000000 14.453000 0.000000
      CHANNELS 3 Yrotation Xrotation Zrotation
      JOINT Head
      {
       OFFSET 0.000000 8.936500 -0.011300
       CHANNELS 3 Yrotation Xrotation Zrotation
       End Site
       {
        OFFSET 0.000000 17.073600 -0.006000
       }
      }
     }
     JOINT RightCollar
     {
      OFFSET -2.921100 9.558500 0.000000
      CHANNELS 3 Yrotation Xrotation Zrotation
      JOINT RightShoulder
      {
       OFFSET -13.519700 0.000000 0.000000
       CHANNELS 3 Yrotation Xrotation Zrotation
       JOINT RightElbow
       {
        OFFSET 0.000000 -29.696600 0.000000
        CHANNELS 3 Yrotation Xrotation Zrotation
        JOINT RightWrist
        {
         OFFSET 0.000000 -24.004700 0.000000
         CHANNELS 3 Yrotation Xrotation Zrotation
         End Site
         {
          OFFSET 0.000000 -17.728500 0.000000
         }
        }
       }
      }
     }
     JOINT LeftCollar
     {
      OFFSET 2.921100 9.558500 0.000000
      CHANNELS 3 Yrotation Xrotation Zrotation
      JOINT LeftShoulder
      {
       OFFSET 13.519700 0.000000 0.000000
       CHANNELS 3 Yrotation Xrotation Zrotation
       JOINT LeftElbow
       {
        OFFSET 0.000000 -29.696600 0.000000
        CHANNELS 3 Yrotation Xrotation Zrotation
        JOINT LeftWrist
        {
         OFFSET 0.000000 -24.004700 0.000000
         CHANNELS 3 Yrotation Xrotation Zrotation
         End Site
         {
          OFFSET 0.000000 -17.728500 0.000000
         }
        }
       }
      }
     }
    }
   }
  }
 }
 JOINT RightHip
 {
  OFFSET -7.771700 -0.012900 -0.001300
  CHANNELS 3 Yrotation Xrotation Zrotation
  JOINT RightKnee
  {
   OFFSET 0.000000 -40.869800 0.001200
   CHANNELS 3 Yrotation Xrotation Zrotation
   JOINT RightAnkle
   {
    OFFSET 0.000000 -39.717900 0.002100
    CHANNELS 3 Yrotation Xrotation Zrotation
    JOINT RightToe
    {
     OFFSET 0.000000 -4.965400 11.033500
     CHANNELS 3 Yrotation Xrotation Zrotation
     End Site
     {
      OFFSET 0.000000 -1.423100 5.872300
     }
    }
   }
  }
 }
 JOINT LeftHip
 {
  OFFSET 7.771700 -0.012900 -0.001300
  CHANNELS 3 Yrotation Xrotation Zrotation
  JOINT LeftKnee
  {
   OFFSET 0.000000 -40.869800 0.001200
   CHANNELS 3 Yrotation Xrotation Zrotation
   JOINT LeftAnkle
   {
    OFFSET 0.000000 -39.717900 0.002100
    CHANNELS 3 Yrotation Xrotation Zrotation
    JOINT LeftToe
    {
     OFFSET 0.000000 -4.965400 11.033500
     CHANNELS 3 Yrotation Xrotation Zrotation
     End Site
     {
      OFFSET 0.000000 -1.423100 5.872300
     }
    }
   }
  }
 }
}
MOTION
Frames: 11
Frame Time: 0.008333
0.000000 85.388000 0.000000 0.000000 -5.767877 0.000000 0.000000 11.653817 0.000000 0.000000 -5.885947 0.000000 0.000000 -0.000000 0.000000 0.000000 -0.000000 0.000000 0.000000 12.528835 0.000000 0.000000 0.711642 0.000000 0.000000 -0.000000 0.000000 0.000000 0.000000 -90.000000 0.000000 -2.309062 0.000000 0.000000 2.309062 0.000000 0.000000 -0.000000 0.000000 0.000000 -0.000000 90.000000 0.000000 -2.309062 0.000000 0.000000 2.309062 0.000000 0.000000 8.520406 0.000000 0.000000 1.905762 0.000000 -0.000000 -4.658285 0.000000 0.000000 -0.000000 0.000000 0.000000 8.520406 0.000000 0.000000 1.905762 0.000000 -0.000000 -4.658285 0.000000 0.000000 -0.000000 0.000000
-125.777032 46.747538 -42.292238 174.439646 -29.257432 -2.639033 -0.102284 20.020191 1.898336 -0.036346 2.496819 0.260752 -0.065924 4.107705 0.437615 -0.037804 17.234043 1.836079 -5.441526 18.942305 1.073525 -10.242889 -0.364663 3.637017 -0.129983 1.643683 -2.048948 9.636512 -7.785006 -16.860451 -40.917105 -56.006421 89.100251 -3.488564 -2.096128 -13.980844 -1.749594 1.374440 1.628257 -7.633699 -5.344394 12.533551 55.543410 -70.980030 -93.030502 -1.130672 8.665315 6.172332 2.456383 -57.009384 -6.755001 -158.941774 75.288743 -149.652882 -9.957810 -15.784792 -3.694477 -0.082198 -0.179242 -0.039867 0.560619 -59.627333 12.566359 -109.700610 83.130520 -114.253771 6.588854 -5.938704 5.564873 0.191968 0.169807 0.061620
-125.771352 46.746991 -42.292994 174.433666 -29.267867 -2.649540 -0.086174 20.026466 1.909624 -0.036854 2.495087 0.262688 -0.063786 4.110386 0.436952 -0.038526 17.235313 1.840840 -5.396900 18.935084 1.059180 -10.193274 -0.374747 3.615012 -0.130538 1.645239 -2.048944 9.646456 -7.802915 -16.859273 -40.939868 -56.004294 89.121196 -3.480576 -2.099368 -13.977892 -1.739301 1.369152 1.629669 -7.615231 -5.349126 12.524840 55.623114 -70.948069 -93.110575 -1.170070 8.674893 6.143188 2.443600 -56.995062 -6.736470 -158.983684 75.295679 -149.686115 -9.947498 -15.795044 -3.702208 -0.101213 -0.177959 -0.041237 0.519642 -59.617802 12.607043 -109.776092 83.136213 -114.326823 6.595913 -5.949652 5.559484 0.191480 0.173462 0.058715
-125.765361 46.745723 -42.292597 174.419826 -29.272187 -2.654412 -0.061914 20.017841 1.919278 -0.036844 2.501263 0.266080 -0.068238 4.110903 0.437792 -0.037099 17.238674 1.843375 -5.350181 18.925118 1.043613 -10.144709 -0.390149 3.592246 -0.121524 1.646009 -2.051441 9.653461 -7.820690 -16.859792 -40.996552 -56.017366 89.193609 -3.497863 -2.085730 -14.006072 -1.725809 1.362325 1.628951 -7.590653 -5.357065 12.515245 55.603798 -70.940954 -93.120655 -1.186961 8.658660 6.139334 2.433866 -56.988852 -6.719689 -159.043146 75.308454 -149.724091 -9.975319 -15.804458 -3.723558 -0.083816 -0.178463 -0.036369 0.487006 -59.616135 12.644898 -109.898874 83.148914 -114.447298 6.588595 -5.958430 5.555603 0.173860 0.174923 0.054634
-125.755469 46.746288 -42.294704 174.392945 -29.298939 -2.670764 -0.024299 20.041611 1.950453 -0.034134 2.500207 0.266348 -0.063724 4.109119 0.435937 -0.015569 17.241658 1.851741 -5.333561 18.915172 1.035563 -10.138241 -0.393675 3.590230 -0.138527 1.641034 -2.050870 9.675601 -7.859612 -16.856779 -40.993642 -55.991360 89.168941 -3.481587 -2.105971 -13.972257 -1.718952 1.351028 1.631681 -7.593466 -5.362514 12.508907 55.667094 -70.928234 -93.176684 -1.206250 8.668614 6.122864 2.405788 -56.962567 -6.660273 -159.064509 75.314081 -149.732619 -10.000806 -15.830461 -3.732500 -0.053290 -0.161673 -0.035718 0.458062 -59.591681 12.703689 -110.059364 83.156994 -114.594806 6.606227 -5.965260 5.554353 0.124936 0.163852 0.044680
-125.750712 46.745755 -42.295489 174.389990 -29.313528 -2.665735 -0.012103 20.049245 1.950167 -0.038771 2.504096 0.266492 -0.057455 4.108331 0.436818 -0.017517 17.245416 1.854293 -5.307905 18.906374 1.027592 -10.050492 -0.434272 3.545502 -0.130058 1.631928 -2.051793 9.665271 -7.862196 -16.854177 -40.995587 -55.985475 89.166434 -3.473208 -2.113964 -13.943388 -1.703052 1.344198 1.631881 -7.595431 -5.369177 12.503338 55.720219 -70.918540 -93.218054 -1.219568 8.686079 6.104247 2.411188 -56.947007 -6.665341 -159.079390 75.315605 -149.742189 -9.992234 -15.835431 -3.747073 -0.056924 -0.160371 -0.029702 0.465071 -59.577549 12.699785 -110.091185 83.157842 -114.621040 6.589801 -5.972352 5.562431 0.129654 0.168291 0.034675
-125.746795 46.744787 -42.295140 174.390174 -29.321919 -2.655425 0.005836 20.044862 1.953583 -0.047952 2.512075 0.262875 -0.055810 4.110596 0.437611 -0.020952 17.248128 1.854695 -5.306450 18.902434 1.025007 -9.937593 -0.481792 3.492275 -0.103112 1.622902 -2.048245 9.635153 -7.863508 -16.855860 -41.027459 -55.987035 89.196596 -3.477254 -2.097825 -13.938360 -1.687227 1.336528 1.633566 -7.588493 -5.377463 12.492725 55.686481 -70.917743 -93.209580 -1.219298 8.656557 6.136484 2.421098 -56.934167 -6.678592 -159.074481 75.319558 -149.730912 -10.008290 -15.854480 -3.752917 -0.036921 -0.151242 -0.027029 0.477017 -59.571293 12.674988 -110.157153 83.166797 -114.683181 6.604661 -5.980099 5.571716 0.110375 0.171575 0.020384
-125.740208 46.744486 -42.294786 174.389063 -29.335102 -2.658903 0.024209 20.052042 1.967611 -0.053838 2.511001 0.262888 -0.054676 4.111470 0.437879 -0.015700 17.249872 1.856291 -5.277375 18.891022 1.015139 -9.877151 -0.503288 3.470026 -0.108261 1.623742 -2.047037 9.639653 -7.894424 -16.856775 -41.069308 -55.971644 89.238140 -3.481096 -2.060318 -13.947762 -1.696409 1.337820 1.633989 -7.549110 -5.389985 12.478556 55.706198 -70.911762 -93.236818 -1.228110 8.655984 6.133607 2.405073 -56.917693 -6.659124 -159.076120 75.324624 -149.722053 -10.031609 -15.866200 -3.767468 -0.033691 -0.150042 -0.021068 0.471403 -59.559097 12.678512 -110.159731 83.159312 -114.674044 6.627721 -5.992049 5.566155 0.111256 0.171973 0.025320
-125.732140 46.743971 -42.292972 174.388157 -29.342193 -2.671892 0.048588 20.053234 1.993523 -0.054024 2.511920 0.261796 -0.053045 4.112664 0.438709 -0.007999 17.251844 1.860339 -5.249231 18.879941 1.008869 -9.822859 -0.526586 3.450736 -0.122124 1.621271 -2.043996 9.635179 -7.908629 -16.855455 -41.067238 -55.961716 89.230546 -3.473176 -2.062664 -13.894871 -1.695644 1.330438 1.638881 -7.534339 -5.393056 12.462316 55.786573 -70.896378 -93.293114 -1.254385 8.694006 6.081113 2.377910 -56.906726 -6.628775 -159.085867 75.329480 -149.702561 -10.056717 -15.882181 -3.807819 -0.030724 -0.149195 -0.004624 0.448710 -59.553866 12.703447 -110.174305 83.160039 -114.682905 6.650618 -6.001021 5.567892 0.102086 0.175932 0.021537
-125.726602 46.743322 -42.290613 174.393043 -29.345826 -2.674128 0.063584 20.049280 2.005004 -0.034600 2.507287 0.268719 -0.072157 4.120160 0.434650 -0.004724 17.251989 1.863312 -5.219581 18.869070 1.001875 -9.765611 -0.546199 3.427165 -0.120049 1.617531 -2.040506 9.619446 -7.916111 -16.854474 -41.066160 -55.953995 89.220267 -3.471700 -2.052464 -13.867086 -1.673732 1.322145 1.632344 -7.537775 -5.392477 12.455904 55.821647 -70.884625 -93.324939 -1.261395 8.698225 6.066384 2.365290 -56.900856 -6.617254 -159.060550 75.330092 -149.666628 -10.065536 -15.891732 -3.827656 0.023501 -0.155660 0.003196 0.443197 -59.557193 12.690049 -110.256599 83.170125 -114.755019 6.680697 -5.997149 5.566842 0.087555 0.168535 0.015131
-125.721109 46.743387 -42.288759 174.397472 -29.355201 -2.678310 0.080864 20.049098 2.019261 -0.033389 2.507767 0.269298 -0.071793 4.122583 0.435947 0.002488 17.252679 1.868463 -5.145278 18.849717 0.987510 -9.751137 -0.552914 3.420638 -0.125739 1.617363 -2.035248 9.610162 -7.923057 -16.854281 -41.109135 -55.944605 89.261571 -3.467581 -2.014168 -13.856728 -1.687018 1.323105 1.629747 -7.532729 -5.394503 12.451430 55.856588 -70.872319 -93.342334 -1.250781 8.672162 6.099652 2.348871 -56.883830 -6.607133 -159.046612 75.337386 -149.645547 -10.048858 -15.905512 -3.846156 0.026163 -0.149169 0.006812 0.433516 -59.550309 12.687530 -110.268551 83.170738 -114.760913 6.715757 -5.998460 5.565871 0.066645 0.167801 0.008647
